<?xml version="1.0" standalone="no"?>
<svg xmlns="http://www.w3.org/2000/svg" width="200" height="200" xmlns:xlink="http://www.w3.org/1999/xlink" viewBox="0 0 200 200"><defs><clipPath id="clip-path-background-color-703"><rect x="0" y="0" width="200" height="200"/></clipPath><clipPath id="clip-path-dot-color-703"><path d="M 49 1v 6h 6v -3a 3 3, 0, 0, 0, -3 -3" transform="rotate(-90,52,4)"/><rect x="55" y="1" width="6" height="6" transform="rotate(0,58,4)"/><path d="M 61 1v 6h 3a 3 3, 0, 0, 0, 0 -6" transform="rotate(0,64,4)"/><circle cx="76" cy="4" r="3" transform="rotate(0,76,4)"/><path d="M 91 1v 6h 6v -3a 3 3, 0, 0, 0, -3 -3" transform="rotate(-90,94,4)"/><path d="M 97 1v 6h 6v -3a 3 3, 0, 0, 0, -3 -3" transform="rotate(0,100,4)"/><path d="M 121 1v 6h 6v -3a 3 3, 0, 0, 0, -3 -3" transform="rotate(-90,124,4)"/><path d="M 127 1v 6h 3a 3 3, 0, 0, 0, 0 -6" transform="rotate(0,130,4)"/><path d="M 49 7v 6h 3a 3 3, 0, 0, 0, 0 -6" transform="rotate(90,52,10)"/><circle cx="70" cy="10" r="3" transform="rotate(0,70,10)"/><rect x="91" y="7" width="6" height="6" transform="rotate(0,94,10)"/><rect x="97" y="7" width="6" height="6" transform="rotate(0,100,10)"/><path d="M 103 7v 6h 6v -3a 3 3, 0, 0, 0, -3 -3" transform="rotate(0,106,10)"/><rect x="121" y="7" width="6" height="6" transform="rotate(0,124,10)"/><circle cx="148" cy="10" r="3" transform="rotate(0,148,10)"/><circle cx="58" cy="16" r="3" transform="rotate(0,58,16)"/><path d="M 73 13v 6h 3a 3 3, 0, 0, 0, 0 -6" transform="rotate(180,76,16)"/><rect x="79" y="13" width="6" height="6" transform="rotate(0,82,16)"/><rect x="85" y="13" width="6" height="6" transform="rotate(0,88,16)"/><path d="M 91 13v 6h 6v -3a 3 3, 0, 0, 0, -3 -3" transform="rotate(90,94,16)"/><path d="M 103 13v 6h 6v -3a 3 3, 0, 0, 0, -3 -3" transform="rotate(180,106,16)"/><path d="M 109 13v 6h 3a 3 3, 0, 0, 0, 0 -6" transform="rotate(0,112,16)"/><path d="M 121 13v 6h 6v -3a 3 3, 0, 0, 0, -3 -3" transform="rotate(180,124,16)"/><rect x="127" y="13" width="6" height="6" transform="rotate(0,130,16)"/><path d="M 133 13v 6h 3a 3 3, 0, 0, 0, 0 -6" transform="rotate(0,136,16)"/><circle cx="64" cy="22" r="3" transform="rotate(0,64,22)"/><circle cx="118" cy="22" r="3" transform="rotate(0,118,22)"/><path d="M 127 19v 6h 3a 3 3, 0, 0, 0, 0 -6" transform="rotate(90,130,22)"/><path d="M 139 19v 6h 6v -3a 3 3, 0, 0, 0, -3 -3" transform="rotate(-90,142,22)"/><path d="M 145 19v 6h 3a 3 3, 0, 0, 0, 0 -6" transform="rotate(0,148,22)"/><path d="M 67 25v 6h 6v -3a 3 3, 0, 0, 0, -3 -3" transform="rotate(-90,70,28)"/><path d="M 73 25v 6h 3a 3 3, 0, 0, 0, 0 -6" transform="rotate(0,76,28)"/><path d="M 109 25v 6h 3a 3 3, 0, 0, 0, 0 -6" transform="rotate(-90,112,28)"/><path d="M 133 25v 6h 3a 3 3, 0, 0, 0, 0 -6" transform="rotate(180,136,28)"/><path d="M 139 25v 6h 6v -3a 3 3, 0, 0, 0, -3 -3" transform="rotate(90,142,28)"/><path d="M 67 31v 6h 3a 3 3, 0, 0, 0, 0 -6" transform="rotate(90,70,34)"/><path d="M 79 31v 6h 3a 3 3, 0, 0, 0, 0 -6" transform="rotate(180,82,34)"/><rect x="85" y="31" width="6" height="6" transform="rotate(0,88,34)"/><path d="M 91 31v 6h 3a 3 3, 0, 0, 0, 0 -6" transform="rotate(0,94,34)"/><rect x="109" y="31" width="6" height="6" transform="rotate(0,112,34)"/><path d="M 121 31v 6h 3a 3 3, 0, 0, 0, 0 -6" transform="rotate(-90,124,34)"/><path d="M 145 31v 6h 3a 3 3, 0, 0, 0, 0 -6" transform="rotate(-90,148,34)"/><circle cx="52" cy="40" r="3" transform="rotate(0,52,40)"/><path d="M 61 37v 6h 3a 3 3, 0, 0, 0, 0 -6" transform="rotate(-90,64,40)"/><circle cx="76" cy="40" r="3" transform="rotate(0,76,40)"/><path d="M 85 37v 6h 3a 3 3, 0, 0, 0, 0 -6" transform="rotate(90,88,40)"/><path d="M 97 37v 6h 3a 3 3, 0, 0, 0, 0 -6" transform="rotate(-90,100,40)"/><rect x="109" y="37" width="6" height="6" transform="rotate(0,112,40)"/><path d="M 121 37v 6h 3a 3 3, 0, 0, 0, 0 -6" transform="rotate(90,124,40)"/><path d="M 133 37v 6h 3a 3 3, 0, 0, 0, 0 -6" transform="rotate(-90,136,40)"/><path d="M 145 37v 6h 3a 3 3, 0, 0, 0, 0 -6" transform="rotate(90,148,40)"/><path d="M 55 43v 6h 6v -3a 3 3, 0, 0, 0, -3 -3" transform="rotate(-90,58,46)"/><rect x="61" y="43" width="6" height="6" transform="rotate(0,64,46)"/><path d="M 67 43v 6h 3a 3 3, 0, 0, 0, 0 -6" transform="rotate(0,70,46)"/><circle cx="82" cy="46" r="3" transform="rotate(0,82,46)"/><path d="M 91 43v 6h 3a 3 3, 0, 0, 0, 0 -6" transform="rotate(180,94,46)"/><path d="M 97 43v 6h 6v -3a 3 3, 0, 0, 0, -3 -3" transform="rotate(90,100,46)"/><rect x="109" y="43" width="6" height="6" transform="rotate(0,112,46)"/><path d="M 133 43v 6h 6v -3a 3 3, 0, 0, 0, -3 -3" transform="rotate(180,136,46)"/><path d="M 139 43v 6h 6v -3a 3 3, 0, 0, 0, -3 -3" transform="rotate(0,142,46)"/><path d="M 7 49v 6h 3a 3 3, 0, 0, 0, 0 -6" transform="rotate(-90,10,52)"/><path d="M 37 49v 6h 3a 3 3, 0, 0, 0, 0 -6" transform="rotate(180,40,52)"/><rect x="43" y="49" width="6" height="6" transform="rotate(0,46,52)"/><rect x="49" y="49" width="6" height="6" transform="rotate(0,52,52)"/><rect x="55" y="49" width="6" height="6" transform="rotate(0,58,52)"/><path d="M 61 49v 6h 6v -3a 3 3, 0, 0, 0, -3 -3" transform="rotate(90,64,52)"/><path d="M 73 49v 6h 3a 3 3, 0, 0, 0, 0 -6" transform="rotate(-90,76,52)"/><path d="M 103 49v 6h 3a 3 3, 0, 0, 0, 0 -6" transform="rotate(180,106,52)"/><path d="M 109 49v 6h 6v -3a 3 3, 0, 0, 0, -3 -3" transform="rotate(90,112,52)"/><rect x="139" y="49" width="6" height="6" transform="rotate(0,142,52)"/><rect x="145" y="49" width="6" height="6" transform="rotate(0,148,52)"/><path d="M 151 49v 6h 3a 3 3, 0, 0, 0, 0 -6" transform="rotate(0,154,52)"/><path d="M 187 49v 6h 3a 3 3, 0, 0, 0, 0 -6" transform="rotate(180,190,52)"/><path d="M 193 49v 6h 3a 3 3, 0, 0, 0, 0 -6" transform="rotate(0,196,52)"/><path d="M 7 55v 6h 6v -3a 3 3, 0, 0, 0, -3 -3" transform="rotate(180,10,58)"/><path d="M 13 55v 6h 3a 3 3, 0, 0, 0, 0 -6" transform="rotate(0,16,58)"/><path d="M 25 55v 6h 3a 3 3, 0, 0, 0, 0 -6" transform="rotate(-90,28,58)"/><path d="M 43 55v 6h 3a 3 3, 0, 0, 0, 0 -6" transform="rotate(90,46,58)"/><rect x="55" y="55" width="6" height="6" transform="rotate(0,58,58)"/><path d="M 67 55v 6h 3a 3 3, 0, 0, 0, 0 -6" transform="rotate(180,70,58)"/><rect x="73" y="55" width="6" height="6" transform="rotate(0,76,58)"/><rect x="79" y="55" width="6" height="6" transform="rotate(0,82,58)"/><path d="M 85 55v 6h 3a 3 3, 0, 0, 0, 0 -6" transform="rotate(0,88,58)"/><path d="M 115 55v 6h 3a 3 3, 0, 0, 0, 0 -6" transform="rotate(180,118,58)"/><path d="M 121 55v 6h 6v -3a 3 3, 0, 0, 0, -3 -3" transform="rotate(0,124,58)"/><path d="M 133 55v 6h 3a 3 3, 0, 0, 0, 0 -6" transform="rotate(180,136,58)"/><path d="M 139 55v 6h 6v -3a 3 3, 0, 0, 0, -3 -3" transform="rotate(90,142,58)"/><path d="M 169 55v 6h 6v -3a 3 3, 0, 0, 0, -3 -3" transform="rotate(-90,172,58)"/><rect x="175" y="55" width="6" height="6" transform="rotate(0,178,58)"/><path d="M 181 55v 6h 6v -3a 3 3, 0, 0, 0, -3 -3" transform="rotate(0,184,58)"/><circle cx="4" cy="64" r="3" transform="rotate(0,4,64)"/><path d="M 25 61v 6h 3a 3 3, 0, 0, 0, 0 -6" transform="rotate(90,28,64)"/><circle cx="40" cy="64" r="3" transform="rotate(0,40,64)"/><rect x="55" y="61" width="6" height="6" transform="rotate(0,58,64)"/><path d="M 61 61v 6h 6v -3a 3 3, 0, 0, 0, -3 -3" transform="rotate(0,64,64)"/><circle cx="100" cy="64" r="3" transform="rotate(0,100,64)"/><circle cx="112" cy="64" r="3" transform="rotate(0,112,64)"/><rect x="121" y="61" width="6" height="6" transform="rotate(0,124,64)"/><path d="M 127 61v 6h 3a 3 3, 0, 0, 0, 0 -6" transform="rotate(0,130,64)"/><circle cx="154" cy="64" r="3" transform="rotate(0,154,64)"/><rect x="169" y="61" width="6" height="6" transform="rotate(0,172,64)"/><rect x="181" y="61" width="6" height="6" transform="rotate(0,184,64)"/><path d="M 187 61v 6h 3a 3 3, 0, 0, 0, 0 -6" transform="rotate(0,190,64)"/><path d="M 7 67v 6h 6v -3a 3 3, 0, 0, 0, -3 -3" transform="rotate(-90,10,70)"/><path d="M 13 67v 6h 3a 3 3, 0, 0, 0, 0 -6" transform="rotate(0,16,70)"/><path d="M 43 67v 6h 6v -3a 3 3, 0, 0, 0, -3 -3" transform="rotate(-90,46,70)"/><rect x="49" y="67" width="6" height="6" transform="rotate(0,52,70)"/><rect x="55" y="67" width="6" height="6" transform="rotate(0,58,70)"/><rect x="61" y="67" width="6" height="6" transform="rotate(0,64,70)"/><path d="M 67 67v 6h 6v -3a 3 3, 0, 0, 0, -3 -3" transform="rotate(0,70,70)"/><path d="M 79 67v 6h 3a 3 3, 0, 0, 0, 0 -6" transform="rotate(180,82,70)"/><path d="M 85 67v 6h 3a 3 3, 0, 0, 0, 0 -6" transform="rotate(0,88,70)"/><path d="M 115 67v 6h 3a 3 3, 0, 0, 0, 0 -6" transform="rotate(180,118,70)"/><rect x="121" y="67" width="6" height="6" transform="rotate(0,124,70)"/><path d="M 163 67v 6h 3a 3 3, 0, 0, 0, 0 -6" transform="rotate(180,166,70)"/><rect x="169" y="67" width="6" height="6" transform="rotate(0,172,70)"/><rect x="175" y="67" width="6" height="6" transform="rotate(0,178,70)"/><path d="M 181 67v 6h 6v -3a 3 3, 0, 0, 0, -3 -3" transform="rotate(90,184,70)"/><path d="M 193 67v 6h 3a 3 3, 0, 0, 0, 0 -6" transform="rotate(-90,196,70)"/><path d="M 1 73v 6h 3a 3 3, 0, 0, 0, 0 -6" transform="rotate(180,4,76)"/><rect x="7" y="73" width="6" height="6" transform="rotate(0,10,76)"/><path d="M 37 73v 6h 3a 3 3, 0, 0, 0, 0 -6" transform="rotate(180,40,76)"/><path d="M 43 73v 6h 6v -3a 3 3, 0, 0, 0, -3 -3" transform="rotate(90,46,76)"/><path d="M 55 73v 6h 3a 3 3, 0, 0, 0, 0 -6" transform="rotate(90,58,76)"/><path d="M 67 73v 6h 3a 3 3, 0, 0, 0, 0 -6" transform="rotate(90,70,76)"/><path d="M 91 73v 6h 6v -3a 3 3, 0, 0, 0, -3 -3" transform="rotate(-90,94,76)"/><rect x="97" y="73" width="6" height="6" transform="rotate(0,100,76)"/><rect x="103" y="73" width="6" height="6" transform="rotate(0,106,76)"/><path d="M 109 73v 6h 3a 3 3, 0, 0, 0, 0 -6" transform="rotate(0,112,76)"/><rect x="121" y="73" width="6" height="6" transform="rotate(0,124,76)"/><path d="M 139 73v 6h 6v -3a 3 3, 0, 0, 0, -3 -3" transform="rotate(-90,142,76)"/><path d="M 145 73v 6h 6v -3a 3 3, 0, 0, 0, -3 -3" transform="rotate(0,148,76)"/><path d="M 157 73v 6h 3a 3 3, 0, 0, 0, 0 -6" transform="rotate(-90,160,76)"/><rect x="193" y="73" width="6" height="6" transform="rotate(0,196,76)"/><path d="M 7 79v 6h 6v -3a 3 3, 0, 0, 0, -3 -3" transform="rotate(180,10,82)"/><rect x="13" y="79" width="6" height="6" transform="rotate(0,16,82)"/><path d="M 19 79v 6h 3a 3 3, 0, 0, 0, 0 -6" transform="rotate(0,22,82)"/><path d="M 49 79v 6h 3a 3 3, 0, 0, 0, 0 -6" transform="rotate(-90,52,82)"/><circle cx="64" cy="82" r="3" transform="rotate(0,64,82)"/><path d="M 79 79v 6h 6v -3a 3 3, 0, 0, 0, -3 -3" transform="rotate(-90,82,82)"/><rect x="85" y="79" width="6" height="6" transform="rotate(0,88,82)"/><path d="M 91 79v 6h 6v -3a 3 3, 0, 0, 0, -3 -3" transform="rotate(90,94,82)"/><path d="M 121 79v 6h 6v -3a 3 3, 0, 0, 0, -3 -3" transform="rotate(180,124,82)"/><rect x="127" y="79" width="6" height="6" transform="rotate(0,130,82)"/><rect x="133" y="79" width="6" height="6" transform="rotate(0,136,82)"/><rect x="139" y="79" width="6" height="6" transform="rotate(0,142,82)"/><path d="M 145 79v 6h 6v -3a 3 3, 0, 0, 0, -3 -3" transform="rotate(90,148,82)"/><rect x="157" y="79" width="6" height="6" transform="rotate(0,160,82)"/><path d="M 163 79v 6h 3a 3 3, 0, 0, 0, 0 -6" transform="rotate(0,166,82)"/><path d="M 181 79v 6h 3a 3 3, 0, 0, 0, 0 -6" transform="rotate(180,184,82)"/><rect x="187" y="79" width="6" height="6" transform="rotate(0,190,82)"/><path d="M 193 79v 6h 6v -3a 3 3, 0, 0, 0, -3 -3" transform="rotate(90,196,82)"/><rect x="13" y="85" width="6" height="6" transform="rotate(0,16,88)"/><path d="M 25 85v 6h 6v -3a 3 3, 0, 0, 0, -3 -3" transform="rotate(-90,28,88)"/><rect x="31" y="85" width="6" height="6" transform="rotate(0,34,88)"/><path d="M 37 85v 6h 3a 3 3, 0, 0, 0, 0 -6" transform="rotate(0,40,88)"/><path d="M 49 85v 6h 6v -3a 3 3, 0, 0, 0, -3 -3" transform="rotate(180,52,88)"/><path d="M 55 85v 6h 6v -3a 3 3, 0, 0, 0, -3 -3" transform="rotate(0,58,88)"/><path d="M 67 85v 6h 3a 3 3, 0, 0, 0, 0 -6" transform="rotate(180,70,88)"/><rect x="73" y="85" width="6" height="6" transform="rotate(0,76,88)"/><path d="M 79 85v 6h 6v -3a 3 3, 0, 0, 0, -3 -3" transform="rotate(90,82,88)"/><path d="M 103 85v 6h 3a 3 3, 0, 0, 0, 0 -6" transform="rotate(180,106,88)"/><rect x="109" y="85" width="6" height="6" transform="rotate(0,112,88)"/><path d="M 115 85v 6h 6v -3a 3 3, 0, 0, 0, -3 -3" transform="rotate(0,118,88)"/><path d="M 127 85v 6h 6v -3a 3 3, 0, 0, 0, -3 -3" transform="rotate(180,130,88)"/><path d="M 133 85v 6h 6v -3a 3 3, 0, 0, 0, -3 -3" transform="rotate(90,136,88)"/><path d="M 151 85v 6h 6v -3a 3 3, 0, 0, 0, -3 -3" transform="rotate(-90,154,88)"/><path d="M 157 85v 6h 6v -3a 3 3, 0, 0, 0, -3 -3" transform="rotate(90,160,88)"/><path d="M 175 85v 6h 3a 3 3, 0, 0, 0, 0 -6" transform="rotate(-90,178,88)"/><path d="M 187 85v 6h 3a 3 3, 0, 0, 0, 0 -6" transform="rotate(90,190,88)"/><path d="M 7 91v 6h 6v -3a 3 3, 0, 0, 0, -3 -3" transform="rotate(-90,10,94)"/><rect x="13" y="91" width="6" height="6" transform="rotate(0,16,94)"/><rect x="19" y="91" width="6" height="6" transform="rotate(0,22,94)"/><path d="M 25 91v 6h 6v -3a 3 3, 0, 0, 0, -3 -3" transform="rotate(90,28,94)"/><circle cx="46" cy="94" r="3" transform="rotate(0,46,94)"/><path d="M 55 91v 6h 6v -3a 3 3, 0, 0, 0, -3 -3" transform="rotate(180,58,94)"/><path d="M 61 91v 6h 3a 3 3, 0, 0, 0, 0 -6" transform="rotate(0,64,94)"/><path d="M 85 91v 6h 3a 3 3, 0, 0, 0, 0 -6" transform="rotate(180,88,94)"/><path d="M 91 91v 6h 6v -3a 3 3, 0, 0, 0, -3 -3" transform="rotate(0,94,94)"/><path d="M 109 91v 6h 6v -3a 3 3, 0, 0, 0, -3 -3" transform="rotate(180,112,94)"/><rect x="115" y="91" width="6" height="6" transform="rotate(0,118,94)"/><path d="M 145 91v 6h 6v -3a 3 3, 0, 0, 0, -3 -3" transform="rotate(-90,148,94)"/><rect x="151" y="91" width="6" height="6" transform="rotate(0,154,94)"/><path d="M 163 91v 6h 6v -3a 3 3, 0, 0, 0, -3 -3" transform="rotate(-90,166,94)"/><rect x="169" y="91" width="6" height="6" transform="rotate(0,172,94)"/><rect x="175" y="91" width="6" height="6" transform="rotate(0,178,94)"/><path d="M 181 91v 6h 3a 3 3, 0, 0, 0, 0 -6" transform="rotate(0,184,94)"/><path d="M 193 91v 6h 3a 3 3, 0, 0, 0, 0 -6" transform="rotate(-90,196,94)"/><path d="M 1 97v 6h 3a 3 3, 0, 0, 0, 0 -6" transform="rotate(180,4,100)"/><rect x="7" y="97" width="6" height="6" transform="rotate(0,10,100)"/><rect x="13" y="97" width="6" height="6" transform="rotate(0,16,100)"/><path d="M 19 97v 6h 6v -3a 3 3, 0, 0, 0, -3 -3" transform="rotate(90,22,100)"/><circle cx="40" cy="100" r="3" transform="rotate(0,40,100)"/><circle cx="82" cy="100" r="3" transform="rotate(0,82,100)"/><rect x="91" y="97" width="6" height="6" transform="rotate(0,94,100)"/><circle cx="106" cy="100" r="3" transform="rotate(0,106,100)"/><rect x="115" y="97" width="6" height="6" transform="rotate(0,118,100)"/><path d="M 133 97v 6h 3a 3 3, 0, 0, 0, 0 -6" transform="rotate(180,136,100)"/><rect x="139" y="97" width="6" height="6" transform="rotate(0,142,100)"/><rect x="145" y="97" width="6" height="6" transform="rotate(0,148,100)"/><path d="M 151 97v 6h 6v -3a 3 3, 0, 0, 0, -3 -3" transform="rotate(90,154,100)"/><path d="M 163 97v 6h 6v -3a 3 3, 0, 0, 0, -3 -3" transform="rotate(180,166,100)"/><path d="M 169 97v 6h 6v -3a 3 3, 0, 0, 0, -3 -3" transform="rotate(90,172,100)"/><rect x="193" y="97" width="6" height="6" transform="rotate(0,196,100)"/><rect x="7" y="103" width="6" height="6" transform="rotate(0,10,106)"/><circle cx="34" cy="106" r="3" transform="rotate(0,34,106)"/><circle cx="46" cy="106" r="3" transform="rotate(0,46,106)"/><path d="M 55 103v 6h 3a 3 3, 0, 0, 0, 0 -6" transform="rotate(-90,58,106)"/><path d="M 67 103v 6h 3a 3 3, 0, 0, 0, 0 -6" transform="rotate(-90,70,106)"/><path d="M 85 103v 6h 6v -3a 3 3, 0, 0, 0, -3 -3" transform="rotate(-90,88,106)"/><rect x="91" y="103" width="6" height="6" transform="rotate(0,94,106)"/><path d="M 97 103v 6h 3a 3 3, 0, 0, 0, 0 -6" transform="rotate(0,100,106)"/><rect x="115" y="103" width="6" height="6" transform="rotate(0,118,106)"/><path d="M 121 103v 6h 3a 3 3, 0, 0, 0, 0 -6" transform="rotate(0,124,106)"/><rect x="139" y="103" width="6" height="6" transform="rotate(0,142,106)"/><circle cx="160" cy="106" r="3" transform="rotate(0,160,106)"/><path d="M 175 103v 6h 6v -3a 3 3, 0, 0, 0, -3 -3" transform="rotate(-90,178,106)"/><path d="M 181 103v 6h 6v -3a 3 3, 0, 0, 0, -3 -3" transform="rotate(0,184,106)"/><rect x="193" y="103" width="6" height="6" transform="rotate(0,196,106)"/><path d="M 1 109v 6h 3a 3 3, 0, 0, 0, 0 -6" transform="rotate(180,4,112)"/><rect x="7" y="109" width="6" height="6" transform="rotate(0,10,112)"/><rect x="13" y="109" width="6" height="6" transform="rotate(0,16,112)"/><path d="M 19 109v 6h 3a 3 3, 0, 0, 0, 0 -6" transform="rotate(0,22,112)"/><circle cx="40" cy="112" r="3" transform="rotate(0,40,112)"/><path d="M 49 109v 6h 6v -3a 3 3, 0, 0, 0, -3 -3" transform="rotate(-90,52,112)"/><rect x="55" y="109" width="6" height="6" transform="rotate(0,58,112)"/><rect x="67" y="109" width="6" height="6" transform="rotate(0,70,112)"/><path d="M 85 109v 6h 6v -3a 3 3, 0, 0, 0, -3 -3" transform="rotate(180,88,112)"/><path d="M 91 109v 6h 6v -3a 3 3, 0, 0, 0, -3 -3" transform="rotate(90,94,112)"/><circle cx="106" cy="112" r="3" transform="rotate(0,106,112)"/><rect x="115" y="109" width="6" height="6" transform="rotate(0,118,112)"/><path d="M 127 109v 6h 3a 3 3, 0, 0, 0, 0 -6" transform="rotate(180,130,112)"/><rect x="133" y="109" width="6" height="6" transform="rotate(0,136,112)"/><rect x="139" y="109" width="6" height="6" transform="rotate(0,142,112)"/><path d="M 145 109v 6h 3a 3 3, 0, 0, 0, 0 -6" transform="rotate(0,148,112)"/><circle cx="166" cy="112" r="3" transform="rotate(0,166,112)"/><rect x="175" y="109" width="6" height="6" transform="rotate(0,178,112)"/><rect x="181" y="109" width="6" height="6" transform="rotate(0,184,112)"/><path d="M 193 109v 6h 3a 3 3, 0, 0, 0, 0 -6" transform="rotate(90,196,112)"/><path d="M 25 115v 6h 6v -3a 3 3, 0, 0, 0, -3 -3" transform="rotate(-90,28,118)"/><path d="M 31 115v 6h 6v -3a 3 3, 0, 0, 0, -3 -3" transform="rotate(0,34,118)"/><rect x="49" y="115" width="6" height="6" transform="rotate(0,52,118)"/><rect x="55" y="115" width="6" height="6" transform="rotate(0,58,118)"/><rect x="61" y="115" width="6" height="6" transform="rotate(0,64,118)"/><path d="M 67 115v 6h 6v -3a 3 3, 0, 0, 0, -3 -3" transform="rotate(90,70,118)"/><circle cx="82" cy="118" r="3" transform="rotate(0,82,118)"/><path d="M 97 115v 6h 3a 3 3, 0, 0, 0, 0 -6" transform="rotate(-90,100,118)"/><rect x="115" y="115" width="6" height="6" transform="rotate(0,118,118)"/><path d="M 139 115v 6h 3a 3 3, 0, 0, 0, 0 -6" transform="rotate(90,142,118)"/><path d="M 169 115v 6h 6v -3a 3 3, 0, 0, 0, -3 -3" transform="rotate(-90,172,118)"/><rect x="175" y="115" width="6" height="6" transform="rotate(0,178,118)"/><rect x="181" y="115" width="6" height="6" transform="rotate(0,184,118)"/><path d="M 187 115v 6h 6v -3a 3 3, 0, 0, 0, -3 -3" transform="rotate(0,190,118)"/><path d="M 13 121v 6h 6v -3a 3 3, 0, 0, 0, -3 -3" transform="rotate(-90,16,124)"/><rect x="19" y="121" width="6" height="6" transform="rotate(0,22,124)"/><rect x="25" y="121" width="6" height="6" transform="rotate(0,28,124)"/><rect x="31" y="121" width="6" height="6" transform="rotate(0,34,124)"/><rect x="37" y="121" width="6" height="6" transform="rotate(0,40,124)"/><rect x="43" y="121" width="6" height="6" transform="rotate(0,46,124)"/><rect x="49" y="121" width="6" height="6" transform="rotate(0,52,124)"/><rect x="55" y="121" width="6" height="6" transform="rotate(0,58,124)"/><path d="M 61 121v 6h 6v -3a 3 3, 0, 0, 0, -3 -3" transform="rotate(90,64,124)"/><path d="M 97 121v 6h 6v -3a 3 3, 0, 0, 0, -3 -3" transform="rotate(180,100,124)"/><rect x="103" y="121" width="6" height="6" transform="rotate(0,106,124)"/><rect x="109" y="121" width="6" height="6" transform="rotate(0,112,124)"/><rect x="115" y="121" width="6" height="6" transform="rotate(0,118,124)"/><path d="M 121 121v 6h 6v -3a 3 3, 0, 0, 0, -3 -3" transform="rotate(0,124,124)"/><circle cx="154" cy="124" r="3" transform="rotate(0,154,124)"/><path d="M 163 121v 6h 6v -3a 3 3, 0, 0, 0, -3 -3" transform="rotate(-90,166,124)"/><rect x="169" y="121" width="6" height="6" transform="rotate(0,172,124)"/><rect x="175" y="121" width="6" height="6" transform="rotate(0,178,124)"/><path d="M 187 121v 6h 3a 3 3, 0, 0, 0, 0 -6" transform="rotate(90,190,124)"/><path d="M 1 127v 6h 3a 3 3, 0, 0, 0, 0 -6" transform="rotate(-90,4,130)"/><path d="M 13 127v 6h 6v -3a 3 3, 0, 0, 0, -3 -3" transform="rotate(180,16,130)"/><rect x="19" y="127" width="6" height="6" transform="rotate(0,22,130)"/><rect x="25" y="127" width="6" height="6" transform="rotate(0,28,130)"/><rect x="31" y="127" width="6" height="6" transform="rotate(0,34,130)"/><path d="M 43 127v 6h 6v -3a 3 3, 0, 0, 0, -3 -3" transform="rotate(180,46,130)"/><rect x="49" y="127" width="6" height="6" transform="rotate(0,52,130)"/><path d="M 55 127v 6h 6v -3a 3 3, 0, 0, 0, -3 -3" transform="rotate(90,58,130)"/><path d="M 91 127v 6h 3a 3 3, 0, 0, 0, 0 -6" transform="rotate(-90,94,130)"/><rect x="121" y="127" width="6" height="6" transform="rotate(0,124,130)"/><path d="M 133 127v 6h 6v -3a 3 3, 0, 0, 0, -3 -3" transform="rotate(-90,136,130)"/><path d="M 139 127v 6h 3a 3 3, 0, 0, 0, 0 -6" transform="rotate(0,142,130)"/><rect x="163" y="127" width="6" height="6" transform="rotate(0,166,130)"/><rect x="169" y="127" width="6" height="6" transform="rotate(0,172,130)"/><rect x="175" y="127" width="6" height="6" transform="rotate(0,178,130)"/><path d="M 181 127v 6h 6v -3a 3 3, 0, 0, 0, -3 -3" transform="rotate(0,184,130)"/><rect x="1" y="133" width="6" height="6" transform="rotate(0,4,136)"/><path d="M 19 133v 6h 6v -3a 3 3, 0, 0, 0, -3 -3" transform="rotate(180,22,136)"/><rect x="25" y="133" width="6" height="6" transform="rotate(0,28,136)"/><rect x="31" y="133" width="6" height="6" transform="rotate(0,34,136)"/><path d="M 37 133v 6h 3a 3 3, 0, 0, 0, 0 -6" transform="rotate(0,40,136)"/><rect x="49" y="133" width="6" height="6" transform="rotate(0,52,136)"/><path d="M 79 133v 6h 3a 3 3, 0, 0, 0, 0 -6" transform="rotate(180,82,136)"/><rect x="85" y="133" width="6" height="6" transform="rotate(0,88,136)"/><path d="M 91 133v 6h 6v -3a 3 3, 0, 0, 0, -3 -3" transform="rotate(90,94,136)"/><path d="M 121 133v 6h 3a 3 3, 0, 0, 0, 0 -6" transform="rotate(90,124,136)"/><rect x="133" y="133" width="6" height="6" transform="rotate(0,136,136)"/><path d="M 145 133v 6h 3a 3 3, 0, 0, 0, 0 -6" transform="rotate(180,148,136)"/><rect x="151" y="133" width="6" height="6" transform="rotate(0,154,136)"/><rect x="157" y="133" width="6" height="6" transform="rotate(0,160,136)"/><rect x="163" y="133" width="6" height="6" transform="rotate(0,166,136)"/><rect x="169" y="133" width="6" height="6" transform="rotate(0,172,136)"/><rect x="175" y="133" width="6" height="6" transform="rotate(0,178,136)"/><rect x="181" y="133" width="6" height="6" transform="rotate(0,184,136)"/><path d="M 187 133v 6h 3a 3 3, 0, 0, 0, 0 -6" transform="rotate(0,190,136)"/><rect x="1" y="139" width="6" height="6" transform="rotate(0,4,142)"/><path d="M 49 139v 6h 3a 3 3, 0, 0, 0, 0 -6" transform="rotate(90,52,142)"/><path d="M 61 139v 6h 3a 3 3, 0, 0, 0, 0 -6" transform="rotate(180,64,142)"/><rect x="67" y="139" width="6" height="6" transform="rotate(0,70,142)"/><path d="M 73 139v 6h 6v -3a 3 3, 0, 0, 0, -3 -3" transform="rotate(0,76,142)"/><circle cx="100" cy="142" r="3" transform="rotate(0,100,142)"/><path d="M 133 139v 6h 6v -3a 3 3, 0, 0, 0, -3 -3" transform="rotate(180,136,142)"/><path d="M 139 139v 6h 6v -3a 3 3, 0, 0, 0, -3 -3" transform="rotate(0,142,142)"/><rect x="163" y="139" width="6" height="6" transform="rotate(0,166,142)"/><rect x="169" y="139" width="6" height="6" transform="rotate(0,172,142)"/><path d="M 181 139v 6h 3a 3 3, 0, 0, 0, 0 -6" transform="rotate(90,184,142)"/><path d="M 1 145v 6h 6v -3a 3 3, 0, 0, 0, -3 -3" transform="rotate(180,4,148)"/><path d="M 7 145v 6h 3a 3 3, 0, 0, 0, 0 -6" transform="rotate(0,10,148)"/><path d="M 19 145v 6h 3a 3 3, 0, 0, 0, 0 -6" transform="rotate(180,22,148)"/><rect x="25" y="145" width="6" height="6" transform="rotate(0,28,148)"/><rect x="31" y="145" width="6" height="6" transform="rotate(0,34,148)"/><path d="M 37 145v 6h 3a 3 3, 0, 0, 0, 0 -6" transform="rotate(0,40,148)"/><circle cx="58" cy="148" r="3" transform="rotate(0,58,148)"/><rect x="73" y="145" width="6" height="6" transform="rotate(0,76,148)"/><circle cx="106" cy="148" r="3" transform="rotate(0,106,148)"/><path d="M 115 145v 6h 6v -3a 3 3, 0, 0, 0, -3 -3" transform="rotate(-90,118,148)"/><path d="M 121 145v 6h 6v -3a 3 3, 0, 0, 0, -3 -3" transform="rotate(0,124,148)"/><rect x="139" y="145" width="6" height="6" transform="rotate(0,142,148)"/><rect x="145" y="145" width="6" height="6" transform="rotate(0,148,148)"/><rect x="151" y="145" width="6" height="6" transform="rotate(0,154,148)"/><rect x="157" y="145" width="6" height="6" transform="rotate(0,160,148)"/><rect x="163" y="145" width="6" height="6" transform="rotate(0,166,148)"/><rect x="169" y="145" width="6" height="6" transform="rotate(0,172,148)"/><path d="M 175 145v 6h 3a 3 3, 0, 0, 0, 0 -6" transform="rotate(0,178,148)"/><circle cx="190" cy="148" r="3" transform="rotate(0,190,148)"/><path d="M 49 151v 6h 3a 3 3, 0, 0, 0, 0 -6" transform="rotate(-90,52,154)"/><path d="M 73 151v 6h 6v -3a 3 3, 0, 0, 0, -3 -3" transform="rotate(180,76,154)"/><rect x="79" y="151" width="6" height="6" transform="rotate(0,82,154)"/><path d="M 85 151v 6h 3a 3 3, 0, 0, 0, 0 -6" transform="rotate(0,88,154)"/><path d="M 97 151v 6h 3a 3 3, 0, 0, 0, 0 -6" transform="rotate(-90,100,154)"/><path d="M 109 151v 6h 3a 3 3, 0, 0, 0, 0 -6" transform="rotate(180,112,154)"/><rect x="115" y="151" width="6" height="6" transform="rotate(0,118,154)"/><rect x="121" y="151" width="6" height="6" transform="rotate(0,124,154)"/><path d="M 127 151v 6h 3a 3 3, 0, 0, 0, 0 -6" transform="rotate(0,130,154)"/><rect x="139" y="151" width="6" height="6" transform="rotate(0,142,154)"/><rect x="145" y="151" width="6" height="6" transform="rotate(0,148,154)"/><rect x="169" y="151" width="6" height="6" transform="rotate(0,172,154)"/><path d="M 181 151v 6h 3a 3 3, 0, 0, 0, 0 -6" transform="rotate(-90,184,154)"/><circle cx="196" cy="154" r="3" transform="rotate(0,196,154)"/><path d="M 49 157v 6h 6v -3a 3 3, 0, 0, 0, -3 -3" transform="rotate(180,52,160)"/><rect x="55" y="157" width="6" height="6" transform="rotate(0,58,160)"/><rect x="61" y="157" width="6" height="6" transform="rotate(0,64,160)"/><path d="M 67 157v 6h 3a 3 3, 0, 0, 0, 0 -6" transform="rotate(0,70,160)"/><path d="M 91 157v 6h 6v -3a 3 3, 0, 0, 0, -3 -3" transform="rotate(-90,94,160)"/><path d="M 97 157v 6h 6v -3a 3 3, 0, 0, 0, -3 -3" transform="rotate(90,100,160)"/><rect x="121" y="157" width="6" height="6" transform="rotate(0,124,160)"/><path d="M 133 157v 6h 3a 3 3, 0, 0, 0, 0 -6" transform="rotate(180,136,160)"/><rect x="139" y="157" width="6" height="6" transform="rotate(0,142,160)"/><rect x="145" y="157" width="6" height="6" transform="rotate(0,148,160)"/><circle cx="160" cy="160" r="3" transform="rotate(0,160,160)"/><rect x="169" y="157" width="6" height="6" transform="rotate(0,172,160)"/><rect x="181" y="157" width="6" height="6" transform="rotate(0,184,160)"/><path d="M 187 157v 6h 3a 3 3, 0, 0, 0, 0 -6" transform="rotate(0,190,160)"/><rect x="61" y="163" width="6" height="6" transform="rotate(0,64,166)"/><circle cx="76" cy="166" r="3" transform="rotate(0,76,166)"/><path d="M 85 163v 6h 6v -3a 3 3, 0, 0, 0, -3 -3" transform="rotate(-90,88,166)"/><rect x="91" y="163" width="6" height="6" transform="rotate(0,94,166)"/><path d="M 109 163v 6h 6v -3a 3 3, 0, 0, 0, -3 -3" transform="rotate(-90,112,166)"/><rect x="115" y="163" width="6" height="6" transform="rotate(0,118,166)"/><path d="M 121 163v 6h 6v -3a 3 3, 0, 0, 0, -3 -3" transform="rotate(90,124,166)"/><path d="M 139 163v 6h 6v -3a 3 3, 0, 0, 0, -3 -3" transform="rotate(180,142,166)"/><rect x="145" y="163" width="6" height="6" transform="rotate(0,148,166)"/><rect x="169" y="163" width="6" height="6" transform="rotate(0,172,166)"/><rect x="175" y="163" width="6" height="6" transform="rotate(0,178,166)"/><path d="M 181 163v 6h 6v -3a 3 3, 0, 0, 0, -3 -3" transform="rotate(90,184,166)"/><path d="M 193 163v 6h 3a 3 3, 0, 0, 0, 0 -6" transform="rotate(-90,196,166)"/><path d="M 55 169v 6h 6v -3a 3 3, 0, 0, 0, -3 -3" transform="rotate(-90,58,172)"/><rect x="61" y="169" width="6" height="6" transform="rotate(0,64,172)"/><path d="M 67 169v 6h 3a 3 3, 0, 0, 0, 0 -6" transform="rotate(0,70,172)"/><rect x="85" y="169" width="6" height="6" transform="rotate(0,88,172)"/><rect x="91" y="169" width="6" height="6" transform="rotate(0,94,172)"/><path d="M 103 169v 6h 3a 3 3, 0, 0, 0, 0 -6" transform="rotate(180,106,172)"/><rect x="109" y="169" width="6" height="6" transform="rotate(0,112,172)"/><circle cx="130" cy="172" r="3" transform="rotate(0,130,172)"/><rect x="145" y="169" width="6" height="6" transform="rotate(0,148,172)"/><rect x="151" y="169" width="6" height="6" transform="rotate(0,154,172)"/><rect x="157" y="169" width="6" height="6" transform="rotate(0,160,172)"/><rect x="163" y="169" width="6" height="6" transform="rotate(0,166,172)"/><rect x="169" y="169" width="6" height="6" transform="rotate(0,172,172)"/><rect x="175" y="169" width="6" height="6" transform="rotate(0,178,172)"/><rect x="193" y="169" width="6" height="6" transform="rotate(0,196,172)"/><path d="M 55 175v 6h 3a 3 3, 0, 0, 0, 0 -6" transform="rotate(90,58,178)"/><path d="M 73 175v 6h 3a 3 3, 0, 0, 0, 0 -6" transform="rotate(180,76,178)"/><rect x="79" y="175" width="6" height="6" transform="rotate(0,82,178)"/><rect x="85" y="175" width="6" height="6" transform="rotate(0,88,178)"/><rect x="91" y="175" width="6" height="6" transform="rotate(0,94,178)"/><path d="M 97 175v 6h 6v -3a 3 3, 0, 0, 0, -3 -3" transform="rotate(0,100,178)"/><rect x="109" y="175" width="6" height="6" transform="rotate(0,112,178)"/><path d="M 121 175v 6h 3a 3 3, 0, 0, 0, 0 -6" transform="rotate(-90,124,178)"/><path d="M 139 175v 6h 6v -3a 3 3, 0, 0, 0, -3 -3" transform="rotate(-90,142,178)"/><rect x="145" y="175" width="6" height="6" transform="rotate(0,148,178)"/><rect x="151" y="175" width="6" height="6" transform="rotate(0,154,178)"/><rect x="163" y="175" width="6" height="6" transform="rotate(0,166,178)"/><rect x="169" y="175" width="6" height="6" transform="rotate(0,172,178)"/><rect x="175" y="175" width="6" height="6" transform="rotate(0,178,178)"/><rect x="193" y="175" width="6" height="6" transform="rotate(0,196,178)"/><rect x="79" y="181" width="6" height="6" transform="rotate(0,82,184)"/><rect x="85" y="181" width="6" height="6" transform="rotate(0,88,184)"/><rect x="97" y="181" width="6" height="6" transform="rotate(0,100,184)"/><rect x="109" y="181" width="6" height="6" transform="rotate(0,112,184)"/><rect x="121" y="181" width="6" height="6" transform="rotate(0,124,184)"/><path d="M 127 181v 6h 3a 3 3, 0, 0, 0, 0 -6" transform="rotate(0,130,184)"/><path d="M 139 181v 6h 3a 3 3, 0, 0, 0, 0 -6" transform="rotate(90,142,184)"/><path d="M 151 181v 6h 3a 3 3, 0, 0, 0, 0 -6" transform="rotate(90,154,184)"/><rect x="163" y="181" width="6" height="6" transform="rotate(0,166,184)"/><rect x="169" y="181" width="6" height="6" transform="rotate(0,172,184)"/><rect x="175" y="181" width="6" height="6" transform="rotate(0,178,184)"/><path d="M 187 181v 6h 3a 3 3, 0, 0, 0, 0 -6" transform="rotate(180,190,184)"/><path d="M 193 181v 6h 6v -3a 3 3, 0, 0, 0, -3 -3" transform="rotate(90,196,184)"/><path d="M 49 187v 6h 3a 3 3, 0, 0, 0, 0 -6" transform="rotate(180,52,190)"/><rect x="55" y="187" width="6" height="6" transform="rotate(0,58,190)"/><rect x="61" y="187" width="6" height="6" transform="rotate(0,64,190)"/><path d="M 67 187v 6h 3a 3 3, 0, 0, 0, 0 -6" transform="rotate(0,70,190)"/><rect x="79" y="187" width="6" height="6" transform="rotate(0,82,190)"/><rect x="85" y="187" width="6" height="6" transform="rotate(0,88,190)"/><rect x="91" y="187" width="6" height="6" transform="rotate(0,94,190)"/><rect x="97" y="187" width="6" height="6" transform="rotate(0,100,190)"/><rect x="103" y="187" width="6" height="6" transform="rotate(0,106,190)"/><rect x="109" y="187" width="6" height="6" transform="rotate(0,112,190)"/><rect x="115" y="187" width="6" height="6" transform="rotate(0,118,190)"/><path d="M 121 187v 6h 6v -3a 3 3, 0, 0, 0, -3 -3" transform="rotate(90,124,190)"/><path d="M 133 187v 6h 3a 3 3, 0, 0, 0, 0 -6" transform="rotate(-90,136,190)"/><path d="M 157 187v 6h 3a 3 3, 0, 0, 0, 0 -6" transform="rotate(180,160,190)"/><rect x="163" y="187" width="6" height="6" transform="rotate(0,166,190)"/><rect x="169" y="187" width="6" height="6" transform="rotate(0,172,190)"/><rect x="175" y="187" width="6" height="6" transform="rotate(0,178,190)"/><path d="M 181 187v 6h 3a 3 3, 0, 0, 0, 0 -6" transform="rotate(0,184,190)"/><path d="M 55 193v 6h 6v -3a 3 3, 0, 0, 0, -3 -3" transform="rotate(180,58,196)"/><path d="M 61 193v 6h 6v -3a 3 3, 0, 0, 0, -3 -3" transform="rotate(90,64,196)"/><path d="M 73 193v 6h 3a 3 3, 0, 0, 0, 0 -6" transform="rotate(180,76,196)"/><rect x="79" y="193" width="6" height="6" transform="rotate(0,82,196)"/><rect x="85" y="193" width="6" height="6" transform="rotate(0,88,196)"/><path d="M 91 193v 6h 6v -3a 3 3, 0, 0, 0, -3 -3" transform="rotate(90,94,196)"/><path d="M 103 193v 6h 3a 3 3, 0, 0, 0, 0 -6" transform="rotate(90,106,196)"/><path d="M 115 193v 6h 3a 3 3, 0, 0, 0, 0 -6" transform="rotate(90,118,196)"/><path d="M 133 193v 6h 6v -3a 3 3, 0, 0, 0, -3 -3" transform="rotate(180,136,196)"/><rect x="139" y="193" width="6" height="6" transform="rotate(0,142,196)"/><rect x="145" y="193" width="6" height="6" transform="rotate(0,148,196)"/><path d="M 151 193v 6h 3a 3 3, 0, 0, 0, 0 -6" transform="rotate(0,154,196)"/><path d="M 163 193v 6h 3a 3 3, 0, 0, 0, 0 -6" transform="rotate(90,166,196)"/><circle cx="190" cy="196" r="3" transform="rotate(0,190,196)"/><path d="M 1 1v 6h 6v -3a 3 3, 0, 0, 0, -3 -3" transform="rotate(-90,4,4)"/><rect x="7" y="1" width="6" height="6" transform="rotate(0,10,4)"/><rect x="13" y="1" width="6" height="6" transform="rotate(0,16,4)"/><rect x="19" y="1" width="6" height="6" transform="rotate(0,22,4)"/><rect x="25" y="1" width="6" height="6" transform="rotate(0,28,4)"/><rect x="31" y="1" width="6" height="6" transform="rotate(0,34,4)"/><path d="M 37 1v 6h 6v -3a 3 3, 0, 0, 0, -3 -3" transform="rotate(0,40,4)"/><rect x="1" y="7" width="6" height="6" transform="rotate(0,4,10)"/><rect x="37" y="7" width="6" height="6" transform="rotate(0,40,10)"/><rect x="1" y="13" width="6" height="6" transform="rotate(0,4,16)"/><rect x="37" y="13" width="6" height="6" transform="rotate(0,40,16)"/><rect x="1" y="19" width="6" height="6" transform="rotate(0,4,22)"/><rect x="37" y="19" width="6" height="6" transform="rotate(0,40,22)"/><rect x="1" y="25" width="6" height="6" transform="rotate(0,4,28)"/><rect x="37" y="25" width="6" height="6" transform="rotate(0,40,28)"/><rect x="1" y="31" width="6" height="6" transform="rotate(0,4,34)"/><rect x="37" y="31" width="6" height="6" transform="rotate(0,40,34)"/><path d="M 1 37v 6h 6v -3a 3 3, 0, 0, 0, -3 -3" transform="rotate(180,4,40)"/><rect x="7" y="37" width="6" height="6" transform="rotate(0,10,40)"/><rect x="13" y="37" width="6" height="6" transform="rotate(0,16,40)"/><rect x="19" y="37" width="6" height="6" transform="rotate(0,22,40)"/><rect x="25" y="37" width="6" height="6" transform="rotate(0,28,40)"/><rect x="31" y="37" width="6" height="6" transform="rotate(0,34,40)"/><path d="M 37 37v 6h 6v -3a 3 3, 0, 0, 0, -3 -3" transform="rotate(90,40,40)"/><path d="M 13 13v 6h 6v -3a 3 3, 0, 0, 0, -3 -3" transform="rotate(-90,16,16)"/><rect x="19" y="13" width="6" height="6" transform="rotate(0,22,16)"/><path d="M 25 13v 6h 6v -3a 3 3, 0, 0, 0, -3 -3" transform="rotate(0,28,16)"/><rect x="13" y="19" width="6" height="6" transform="rotate(0,16,22)"/><rect x="19" y="19" width="6" height="6" transform="rotate(0,22,22)"/><rect x="25" y="19" width="6" height="6" transform="rotate(0,28,22)"/><path d="M 13 25v 6h 6v -3a 3 3, 0, 0, 0, -3 -3" transform="rotate(180,16,28)"/><rect x="19" y="25" width="6" height="6" transform="rotate(0,22,28)"/><path d="M 25 25v 6h 6v -3a 3 3, 0, 0, 0, -3 -3" transform="rotate(90,28,28)"/><path d="M 157 1v 6h 6v -3a 3 3, 0, 0, 0, -3 -3" transform="rotate(-90,160,4)"/><rect x="163" y="1" width="6" height="6" transform="rotate(0,166,4)"/><rect x="169" y="1" width="6" height="6" transform="rotate(0,172,4)"/><rect x="175" y="1" width="6" height="6" transform="rotate(0,178,4)"/><rect x="181" y="1" width="6" height="6" transform="rotate(0,184,4)"/><rect x="187" y="1" width="6" height="6" transform="rotate(0,190,4)"/><path d="M 193 1v 6h 6v -3a 3 3, 0, 0, 0, -3 -3" transform="rotate(0,196,4)"/><rect x="157" y="7" width="6" height="6" transform="rotate(0,160,10)"/><rect x="193" y="7" width="6" height="6" transform="rotate(0,196,10)"/><rect x="157" y="13" width="6" height="6" transform="rotate(0,160,16)"/><rect x="193" y="13" width="6" height="6" transform="rotate(0,196,16)"/><rect x="157" y="19" width="6" height="6" transform="rotate(0,160,22)"/><rect x="193" y="19" width="6" height="6" transform="rotate(0,196,22)"/><rect x="157" y="25" width="6" height="6" transform="rotate(0,160,28)"/><rect x="193" y="25" width="6" height="6" transform="rotate(0,196,28)"/><rect x="157" y="31" width="6" height="6" transform="rotate(0,160,34)"/><rect x="193" y="31" width="6" height="6" transform="rotate(0,196,34)"/><path d="M 157 37v 6h 6v -3a 3 3, 0, 0, 0, -3 -3" transform="rotate(180,160,40)"/><rect x="163" y="37" width="6" height="6" transform="rotate(0,166,40)"/><rect x="169" y="37" width="6" height="6" transform="rotate(0,172,40)"/><rect x="175" y="37" width="6" height="6" transform="rotate(0,178,40)"/><rect x="181" y="37" width="6" height="6" transform="rotate(0,184,40)"/><rect x="187" y="37" width="6" height="6" transform="rotate(0,190,40)"/><path d="M 193 37v 6h 6v -3a 3 3, 0, 0, 0, -3 -3" transform="rotate(90,196,40)"/><path d="M 169 13v 6h 6v -3a 3 3, 0, 0, 0, -3 -3" transform="rotate(-90,172,16)"/><rect x="175" y="13" width="6" height="6" transform="rotate(0,178,16)"/><path d="M 181 13v 6h 6v -3a 3 3, 0, 0, 0, -3 -3" transform="rotate(0,184,16)"/><rect x="169" y="19" width="6" height="6" transform="rotate(0,172,22)"/><rect x="175" y="19" width="6" height="6" transform="rotate(0,178,22)"/><rect x="181" y="19" width="6" height="6" transform="rotate(0,184,22)"/><path d="M 169 25v 6h 6v -3a 3 3, 0, 0, 0, -3 -3" transform="rotate(180,172,28)"/><rect x="175" y="25" width="6" height="6" transform="rotate(0,178,28)"/><path d="M 181 25v 6h 6v -3a 3 3, 0, 0, 0, -3 -3" transform="rotate(90,184,28)"/><path d="M 1 157v 6h 6v -3a 3 3, 0, 0, 0, -3 -3" transform="rotate(-90,4,160)"/><rect x="7" y="157" width="6" height="6" transform="rotate(0,10,160)"/><rect x="13" y="157" width="6" height="6" transform="rotate(0,16,160)"/><rect x="19" y="157" width="6" height="6" transform="rotate(0,22,160)"/><rect x="25" y="157" width="6" height="6" transform="rotate(0,28,160)"/><rect x="31" y="157" width="6" height="6" transform="rotate(0,34,160)"/><path d="M 37 157v 6h 6v -3a 3 3, 0, 0, 0, -3 -3" transform="rotate(0,40,160)"/><rect x="1" y="163" width="6" height="6" transform="rotate(0,4,166)"/><rect x="37" y="163" width="6" height="6" transform="rotate(0,40,166)"/><rect x="1" y="169" width="6" height="6" transform="rotate(0,4,172)"/><rect x="37" y="169" width="6" height="6" transform="rotate(0,40,172)"/><rect x="1" y="175" width="6" height="6" transform="rotate(0,4,178)"/><rect x="37" y="175" width="6" height="6" transform="rotate(0,40,178)"/><rect x="1" y="181" width="6" height="6" transform="rotate(0,4,184)"/><rect x="37" y="181" width="6" height="6" transform="rotate(0,40,184)"/><rect x="1" y="187" width="6" height="6" transform="rotate(0,4,190)"/><rect x="37" y="187" width="6" height="6" transform="rotate(0,40,190)"/><path d="M 1 193v 6h 6v -3a 3 3, 0, 0, 0, -3 -3" transform="rotate(180,4,196)"/><rect x="7" y="193" width="6" height="6" transform="rotate(0,10,196)"/><rect x="13" y="193" width="6" height="6" transform="rotate(0,16,196)"/><rect x="19" y="193" width="6" height="6" transform="rotate(0,22,196)"/><rect x="25" y="193" width="6" height="6" transform="rotate(0,28,196)"/><rect x="31" y="193" width="6" height="6" transform="rotate(0,34,196)"/><path d="M 37 193v 6h 6v -3a 3 3, 0, 0, 0, -3 -3" transform="rotate(90,40,196)"/><path d="M 13 169v 6h 6v -3a 3 3, 0, 0, 0, -3 -3" transform="rotate(-90,16,172)"/><rect x="19" y="169" width="6" height="6" transform="rotate(0,22,172)"/><path d="M 25 169v 6h 6v -3a 3 3, 0, 0, 0, -3 -3" transform="rotate(0,28,172)"/><rect x="13" y="175" width="6" height="6" transform="rotate(0,16,178)"/><rect x="19" y="175" width="6" height="6" transform="rotate(0,22,178)"/><rect x="25" y="175" width="6" height="6" transform="rotate(0,28,178)"/><path d="M 13 181v 6h 6v -3a 3 3, 0, 0, 0, -3 -3" transform="rotate(180,16,184)"/><rect x="19" y="181" width="6" height="6" transform="rotate(0,22,184)"/><path d="M 25 181v 6h 6v -3a 3 3, 0, 0, 0, -3 -3" transform="rotate(90,28,184)"/></clipPath></defs><rect x="0" y="0" height="200" width="200" clip-path="url('#clip-path-background-color-703')" fill="#ffffff"/><rect x="0" y="0" height="200" width="200" clip-path="url('#clip-path-dot-color-703')" fill="#000000"/></svg>